<?xml version="1.0" standalone="no"?>
<!DOCTYPE svg PUBLIC "-//W3C//DTD SVG 20010904//EN"
 "http://www.w3.org/TR/2001/REC-SVG-20010904/DTD/svg10.dtd">
<svg version="1.0" xmlns="http://www.w3.org/2000/svg"
 width="512.000000pt" height="512.000000pt" viewBox="0 0 512.000000 512.000000"
 preserveAspectRatio="xMidYMid meet">
<metadata>
Created by potrace 1.11, written by Peter Selinger 2001-2013
</metadata>
<g transform="translate(0.000000,512.000000) scale(0.100000,-0.100000)"
fill="#000000" stroke="none">
<path d="M2321 5110 c-766 -75 -1462 -491 -1893 -1135 -156 -233 -302 -572
-362 -840 -49 -218 -60 -325 -60 -575 0 -250 11 -357 60 -575 81 -362 282
-768 522 -1055 240 -287 515 -503 847 -666 255 -125 484 -196 775 -241 161
-24 539 -24 700 0 291 45 520 116 775 241 518 254 917 653 1171 1171 125 255
196 484 241 775 24 161 24 539 0 700 -45 291 -116 520 -241 775 -254 518 -653
917 -1171 1171 -253 123 -486 196 -765 239 -126 19 -468 27 -599 15z m373
-1925 c239 -50 441 -252 491 -491 96 -451 -308 -855 -759 -759 -183 39 -352
170 -434 336 -95 193 -95 385 0 578 126 256 420 396 702 336z"/>
<path d="M2471 2989 c-124 -24 -249 -122 -303 -236 -128 -270 32 -576 326
-625 286 -47 545 212 498 498 -41 249 -274 412 -521 363z"/>
</g>
</svg>
